<svg width="424" height="402" viewBox="0 0 424 402" fill="none" xmlns="http://www.w3.org/2000/svg">
<path fill-rule="evenodd" clip-rule="evenodd" d="M144.551 2.44302e-05L279.449 1.26371e-05C279.449 37.29 249.226 67.5663 212 67.5663C174.774 67.5663 144.551 37.29 144.551 2.44302e-05ZM125.858 117.392C107.24 149.686 65.9568 160.768 33.727 142.123C1.48647 123.477 -9.57336 82.12 9.03433 49.8255C27.6527 17.53 68.9353 6.44906 101.165 25.0946C133.406 43.7401 144.466 85.0964 125.858 117.392ZM298.142 117.392C279.535 85.0963 290.594 43.7401 322.835 25.0946C355.065 6.44904 396.347 17.53 414.966 49.8255C433.573 82.1199 422.514 123.477 390.273 142.123C358.043 160.768 316.761 149.686 298.142 117.392ZM212 234.784C174.774 234.784 144.551 204.507 144.551 167.217C144.551 129.926 174.774 99.6511 212 99.6511C249.226 99.6511 279.449 129.926 279.449 167.217C279.449 204.507 249.226 234.784 212 234.784ZM414.966 284.609C396.347 316.904 355.065 327.985 322.835 309.34C290.594 290.695 279.535 249.337 298.142 217.043C316.761 184.747 358.043 173.666 390.273 192.312C422.514 210.956 433.573 252.314 414.966 284.609ZM9.03435 284.609C-9.57334 252.314 1.48648 210.956 33.727 192.312C65.9569 173.666 107.24 184.747 125.858 217.043C144.466 249.337 133.406 290.695 101.165 309.34C68.9353 327.985 27.6527 316.904 9.03435 284.609ZM212 402C174.774 402 144.551 371.725 144.551 334.435C144.551 297.144 174.774 266.868 212 266.868C249.226 266.868 279.449 297.144 279.449 334.435C279.449 371.725 249.226 402 212 402Z" fill="#E6E6E6"/>
</svg>
